<?xml version="1.0" encoding="UTF-8"?><svg id="Hands_Mickey" xmlns="http://www.w3.org/2000/svg" viewBox="0 0 1080 1080"><defs><style>.cls-1,.cls-2{stroke-width:0px;}.cls-3{stroke:#000;stroke-linecap:round;stroke-miterlimit:10;stroke-width:5.52px;}.cls-2{fill:#fff;}</style></defs><path class="cls-1" d="M546.48,758.89c-16.05,39.33-40.75,74.96-69.8,105.77-65.1,69.79-159.45,106.95-254.08,107.15-31.19.45-62.55-2.43-93.24-7.73,30.82,4.39,62.07,6.34,93.16,4.98,133.91-4.46,248.94-78.96,304.5-201.22,2.02-4.55,3.92-9.13,5.57-13.81,3.34-9.36,17.1-4.85,13.9,4.86h0Z"/><path class="cls-2" d="M294.14,983.49s-8.72,5.63-7.03,17.72c0,0,39.39,46.14,109.72,38.26,0,0,80.18-9.28,123.5-40.51,0,0,48.67-6.47,27.01-34.88"/><path class="cls-1" d="M380.99,1043.13c-29.25,0-52.01-9.08-66.76-17.43-18.84-10.67-28.81-22.21-29.22-22.69l-.52-.61-.11-.8c-1.91-13.69,7.85-20.16,8.27-20.42l2.99,4.64-1.5-2.32,1.51,2.31c-.29.19-6.85,4.67-5.91,14.22,2.28,2.47,11.72,12.15,27.41,20.99,16.62,9.37,43.87,19.7,79.36,15.72.78-.09,79.96-9.57,122.2-40.01l.56-.41.69-.09c6.84-.92,25.47-5.37,29.41-14.86,1.79-4.33.37-9.58-4.23-15.61l4.39-3.35c5.88,7.71,7.54,14.81,4.93,21.08-5.5,13.25-28.64,17.43-33.07,18.11-43.51,30.97-120.96,40.24-124.25,40.62-5.58.62-10.97.91-16.15.91Z"/><path class="cls-1" d="M463.08,723.55s-34.6,37.56-42.2,64.57c-7.6,27.01,16.46,99.59,16.46,99.59,0,0,16.46,28.7,45.58-2.95,0,0-16.88-17.3-21.1-83.56,0,0,15.61-35.87,39.25-52.33l-37.98-25.32Z"/><path class="cls-2" d="M387.58,1021.08c-2.52,0-5.01-.08-7.38-.23-1.97-.08-49.98-2.57-84.53-38.83l-.41-.43-.2-.56c-.62-1.76-15.04-43.27.54-66.64,6.17-9.25,16.12-14.33,29.59-15.1,1.86-.33,16.48-2.86,35-2.86,24.55,0,44,4.32,57.9,12.85-1.42-5.24-1.18-9.89.71-13.91,4.06-8.63,14.2-10.72,14.63-10.81l2.07-.41.94,1.9c.26.52,6.56,12.8,20.08,12.8,7.63,0,16.2-3.9,25.48-11.59l.44-.36.55-.16c.25-.07,6.24-1.81,13.33-1.81,8.55,0,14.98,2.44,19.11,7.25,4.05,4.7,5.62,11.48,4.7,20.17,8.04,2.87,33.13,14.86,27.12,50.92l-.06.35-.14.32c-.39.86-9.72,21.08-36.37,23.94-6.52,3.06-72.06,33.2-123.09,33.2h0Z"/><path class="cls-1" d="M433.96,887.28s7.07,14.34,22.55,14.34c7.21,0,16.24-3.11,27.24-12.23,0,0,5.78-1.7,12.56-1.7,10.8,0,24.15,4.3,20.78,26.59,0,0,34.18,8.02,27.43,48.53,0,0-8.86,19.83-34.6,22.37,0,0-69.74,33.14-122.33,33.14-2.45,0-4.85-.07-7.22-.22,0,0-48.53-2.11-82.71-37.98,0,0-26.59-75.12,27.85-78.07,0,0,15.29-2.85,34.68-2.85s42.85,2.85,59.21,14.24l4.75,3.32c-13.5-24.9,9.81-29.49,9.81-29.49M437.04,881.05l-4.15.82c-.49.1-11.95,2.45-16.6,12.34-1.43,3.03-2.04,6.34-1.86,9.91-13.84-6.93-32.03-10.44-54.26-10.44-18.26,0-32.82,2.43-35.33,2.88-14.29.85-24.91,6.34-31.56,16.31-16.34,24.5-1.49,67.28-.85,69.09l.39,1.11.81.85c18.48,19.4,40.96,29.15,56.56,33.91,16.46,5.03,28.76,5.72,29.85,5.77,2.42.15,4.95.23,7.52.23,50.67,0,115.26-29.27,123.84-33.27,27.87-3.2,37.73-24.59,38.14-25.5l.29-.65.12-.7c3.89-23.37-4.86-37.06-12.9-44.43-5-4.59-10.33-7.31-14.02-8.8.53-8.46-1.32-15.21-5.53-20.11-4.62-5.37-11.95-8.21-21.21-8.21-7.49,0-13.85,1.84-14.11,1.92l-1.09.32-.88.73c-8.77,7.27-16.75,10.96-23.72,10.96-11.91,0-17.55-11.15-17.6-11.26l-1.87-3.79h0Z"/><path class="cls-1" d="M497.06,925.33c-1.33,0-2.72-.04-4.19-.13-1.52-.09-2.68-1.4-2.59-2.92.09-1.52,1.41-2.67,2.92-2.59,20.42,1.25,24.53-7.5,24.57-7.59.56-1.42,2.15-2.09,3.57-1.53,1.42.56,2.1,2.19,1.54,3.61-.19.48-4.67,11.16-25.84,11.16Z"/><path class="cls-1" d="M445.5,925.33h-.02c-25.47-.17-29.7-15.62-29.87-16.27-.38-1.48.52-2.98,1.99-3.36,1.47-.37,2.96.51,3.35,1.97.15.55,3.63,12,24.56,12.14,1.52,0,2.75,1.25,2.74,2.78,0,1.52-1.24,2.74-2.76,2.74Z"/><path class="cls-2" d="M940.64,983.49s8.72,5.63,7.03,17.72c0,0-39.39,46.14-109.72,38.26,0,0-80.18-9.28-123.5-40.51,0,0-48.67-6.47-27.01-34.88"/><path class="cls-1" d="M853.79,1043.13c29.25,0,52.01-9.08,66.76-17.43,18.84-10.67,28.81-22.21,29.22-22.69l.52-.61.11-.8c1.91-13.69-7.85-20.16-8.27-20.42l-2.99,4.64,1.5-2.32-1.51,2.31c.29.19,6.85,4.67,5.91,14.22-2.28,2.47-11.72,12.15-27.41,20.99-16.62,9.37-43.87,19.7-79.36,15.72-.78-.09-79.96-9.57-122.2-40.01l-.56-.41-.69-.09c-6.84-.92-25.47-5.37-29.41-14.86-1.79-4.33-.37-9.58,4.23-15.61l-4.39-3.35c-5.88,7.71-7.54,14.81-4.93,21.08,5.5,13.25,28.64,17.43,33.07,18.11,43.51,30.97,120.96,40.24,124.25,40.62,5.58.62,10.97.91,16.15.91Z"/><path class="cls-1" d="M771.7,723.55s34.6,37.56,42.2,64.57c7.6,27.01-16.46,99.59-16.46,99.59,0,0-16.46,28.7-45.58-2.95,0,0,16.88-17.3,21.1-83.56,0,0-15.61-35.87-39.25-52.33l37.98-25.32Z"/><path class="cls-2" d="M847.19,1021.08c-51.03,0-116.57-30.14-123.09-33.2-26.66-2.85-35.99-23.07-36.37-23.94l-.14-.32-.06-.35c-6.01-36.06,19.08-48.04,27.12-50.92-.92-8.69.65-15.47,4.7-20.17,4.14-4.81,10.57-7.25,19.11-7.25,7.1,0,13.08,1.73,13.33,1.81l.55.16.44.36c9.28,7.69,17.85,11.59,25.48,11.59h0c13.52,0,19.82-12.28,20.08-12.81l.94-1.88,2.06.4c.43.08,10.57,2.17,14.63,10.81,1.89,4.02,2.13,8.68.71,13.91,13.9-8.53,33.35-12.85,57.9-12.85,18.52,0,33.15,2.53,35,2.86,13.46.77,23.42,5.85,29.59,15.1,15.58,23.36,1.16,64.88.54,66.64l-.2.56-.41.43c-34.55,36.26-82.56,38.75-84.59,38.83-2.32.15-4.81.22-7.34.22Z"/><path class="cls-1" d="M800.82,887.28s23.32,4.59,9.81,29.49l4.75-3.32c16.36-11.39,39.83-14.24,59.21-14.24s34.68,2.85,34.68,2.85c54.44,2.95,27.85,78.07,27.85,78.07-34.18,35.87-82.71,37.98-82.71,37.98-2.37.15-4.77.22-7.22.22-52.59,0-122.33-33.14-122.33-33.14-25.74-2.53-34.6-22.37-34.6-22.37-6.75-40.51,27.43-48.53,27.43-48.53-3.37-22.29,9.98-26.59,20.78-26.59,6.78,0,12.56,1.7,12.56,1.7,11,9.12,20.03,12.23,27.24,12.23,15.48,0,22.55-14.34,22.55-14.34M797.74,881.05l-1.86,3.77c-.28.55-5.92,11.28-17.61,11.28-6.97,0-14.95-3.69-23.72-10.96l-.88-.73-1.09-.32c-.27-.08-6.62-1.92-14.11-1.92-9.25,0-16.59,2.84-21.21,8.21-4.21,4.9-6.07,11.65-5.54,20.11-3.69,1.5-9.02,4.21-14.02,8.8-8.03,7.37-16.79,21.07-12.9,44.43l.12.7.29.65c.41.92,10.27,22.3,38.14,25.5,8.58,3.99,73.17,33.27,123.84,33.27,2.57,0,5.1-.08,7.52-.23,1.09-.05,13.39-.74,29.85-5.77,15.6-4.77,38.07-14.52,56.56-33.91l.81-.85.39-1.11c.64-1.81,15.49-44.59-.85-69.09-6.65-9.97-17.27-15.46-31.56-16.31-2.51-.44-17.07-2.88-35.33-2.88-22.22,0-40.42,3.51-54.26,10.43.19-3.57-.43-6.88-1.86-9.91-4.65-9.88-16.11-12.24-16.6-12.34l-4.15-.82h0Z"/><path class="cls-1" d="M737.72,925.33c1.33,0,2.72-.04,4.19-.13,1.52-.09,2.68-1.4,2.59-2.92-.09-1.52-1.41-2.67-2.92-2.59-20.42,1.25-24.53-7.5-24.57-7.59-.56-1.42-2.15-2.09-3.57-1.53-1.42.56-2.1,2.19-1.54,3.61.19.48,4.67,11.16,25.84,11.16Z"/><path class="cls-1" d="M789.28,925.33h.02c25.47-.17,29.7-15.62,29.87-16.27.38-1.48-.52-2.98-1.99-3.36-1.47-.37-2.96.51-3.35,1.97-.15.55-3.63,12-24.56,12.14-1.52,0-2.75,1.25-2.74,2.78,0,1.52,1.24,2.74,2.76,2.74Z"/><path class="cls-1" d="M434.54,648.87c-10.19,0-24.28-3.95-33.61-22.75-.81-1.34-10.86-17.73-22.55-27.48-7.41-6.18-8.16-17.91-7.49-26.67.6-7.75,2.71-16.87,5.46-21.54-6.18-5.94-23.23-26.39-19.21-68.12.36-3.78,1.47-15.27,56.58-41.47,26.65-12.67,53.38-22.78,53.65-22.88l.6-.23.64.06c.35.03,35.28,3.43,85.81,3.43,60.91,0,117.39-4.69,167.89-13.95l.41-.08.42.05c3.03.37,74.57,9.24,103.57,33.54,6.12,5.12,9.24,11.6,9.29,19.25.16,22.97-27.95,49.56-34.24,55.22,1.5,8.99,6.96,52.41-22.81,75.83l-3.15,2.47-1.2-3.82c-.18-.59-18.42-58.03-43.57-65.42-.02.09-.17.68-.17.68l-.22.36c-.31.5-7.71,12.49-27.04,24.49-17.63,10.95-49.07,23.99-98.69,23.99-25.83,0-54.41-3.51-84.96-10.44.52,7.38-.71,12.22-.84,12.72l-.05.17c-.69,2.03-17.33,49.82-61.37,66.61-1.56.85-11.36,5.95-23.15,5.95ZM477.88,451.78c-17.12,8.11-62.11,31.89-65.97,45.08-3.28,11.19.18,16.12,2.12,17.88,5.17-2.97,22.02-11.66,41.76-11.66,9.82,0,18.87,2.16,27.03,6.44-1.23-6.83-3.04-26.7,8-60.11-.49-.15-1.21-.28-2.22-.28-1.88,0-5.26.46-10.72,2.64ZM755.1,485.29c3.38-5.21,7.22-13.19,5.99-16.21-.11-.27-.34-.83-1.68-1.08-1.27-.24-2.81-.52-4.57-.84-13.16-2.37-36.92-6.64-50.75-15.1-.09.33-.14.62-.13.81.04.01.09.03.15.05,4.48,1.22,16.87,14.49,23.69,32l27.3.37Z"/><path class="cls-1" d="M722.8,410s73.43,8.86,102.12,32.92c28.7,24.05-26.16,71.32-26.16,71.32,0,0,10.13,49.8-21.52,74.69,0,0-18.99-60.77-46.42-67.52,0,0,3.7-18.1-4.73-33.18-.07-.19-.14-.38-.21-.58l30.68.42s14.35-20.68,3.38-22.79c-10.97-2.11-42.62-6.75-56.97-17.3,0,0-4.22,6.33.42,7.6,2.95.81,15.8,13.56,22.49,32.07h-.12c.11.19.22.38.33.58,3.68,10.47,5.37,22.74,2.2,35.71,0,0-28.57,47.16-123.37,47.16-23.84,0-51.86-2.98-84.67-10.44,0,0,.84-31.03-34.18-49.27,0,0-6.33-20.78,8.02-62.98,0,0-1.01-2.02-5.48-2.02-2.6,0-6.38.69-11.83,2.86,0,0-62.46,29.54-67.52,46.84-5.06,17.3,4.64,21.94,4.64,21.94,0,0,19.13-12.19,41.89-12.19,11.38,0,23.66,3.05,34.92,12.19,33.76,27.43,25.74,57.39,25.74,57.39,0,0-16.46,48.53-59.92,64.99,0,0-9.97,5.7-21.98,5.7-10.63,0-22.87-4.47-31.19-21.31,0,0-10.55-17.72-23.21-28.27-12.66-10.55-4.22-43.89,0-46.42,0,0-24.94-18.83-20.26-67.52,2.11-21.94,108.45-62.03,108.45-62.03,0,0,34.81,3.45,86.08,3.45,47,0,107.84-2.9,168.38-14M722.63,404.42l-.82.15c-50.33,9.23-106.65,13.91-167.39,13.91-50.37,0-85.19-3.39-85.54-3.42l-1.28-.13-1.21.45c-.27.1-27.11,10.25-53.86,22.97-50.67,24.09-57.45,36.48-58.14,43.7-3.83,39.83,11.21,61.04,18.59,68.88-3.08,6.54-4.51,16.43-4.85,20.83-.73,9.4.15,22.07,8.47,29,11.13,9.28,20.82,24.91,21.9,26.69,9.96,19.97,25.08,24.17,36.03,24.17,12.03,0,22.12-5.03,24.3-6.19,18.7-7.18,35.47-21.21,48.52-40.61,9.85-14.63,14.13-27.11,14.31-27.63l.06-.17.05-.17c.12-.44,1.06-4.15,1.04-9.96,29.45,6.46,57.05,9.73,82.1,9.73,50.27,0,82.21-13.27,100.15-24.41,17.01-10.56,25.13-21.26,27.33-24.46,18.77,8.04,34.79,47.53,39.58,62.83l2.39,7.64,6.29-4.95c14.16-11.14,22.71-28.61,24.71-50.52,1.06-11.63.04-21.56-.66-26.43,8.12-7.5,34.2-33.36,34.05-56.29-.06-8.49-3.52-15.68-10.28-21.35-29.61-24.82-101.94-33.8-105.01-34.17l-.83-.1h0ZM478.98,454.31c3.74-1.48,6.35-2.09,8.11-2.31-8.09,25.86-8.45,43.47-7.64,52.89-7.3-3.04-15.22-4.58-23.67-4.58-18.23,0-34.08,7.17-41.07,10.89-1.24-2.09-2.32-6.18-.16-13.57.6-2.04,4.75-10,33.09-26.66,15.01-8.83,29.69-15.88,31.34-16.67h0ZM729.67,482.18c-3.4-8.13-8.05-15.55-12.58-21.21,12.94,4.53,27.8,7.2,37.27,8.9,1.6.29,3.02.54,4.21.77-.03,2.18-2.19,7.28-4.99,11.86l-23.92-.33h0Z"/><path class="cls-3" d="M487.26,423.39c-59.53,6.61-91.65-112.44-91.65-112.44-101.1,33.07-115.28-51.02-115.28-51.02,0,0-8.5-68.98,68.03-90.71,76.54-21.73,90.71,38.74,90.71,38.74,24.57-32.13,46.3-39.68,46.3-39.68-22.26-15.35-30.34-33.52-32.07-49.67-2.44-22.72,7.57-44.97,25.6-59.02,17.85-13.9,55.43-26.43,85.85-21.71,62.03,9.63,68.07,44.12,67.09,67.09-1.29,29.89-29.29,48.19-29.29,48.19,0,0,152.13,11.34,137.01,162.52,0,0,6.85,2.71,10.84,6.13,3.99,3.42,9,10.88,9,10.88,0,0,34.38-25.65,59.53-10.39,32.57,19.75-30.24,65.2-68.03,66.14,0,0-57.64,68.56-144.57,35.23,0,0-89.76,10.13-119.05-.27"/><path class="cls-2" d="M534.74,270.89s-14.35-78.49,41.78-105.5c56.13-27.01,82.56,43.47,82.56,43.47,0,0,3.39-28.27,13.66-26.59,20.53,3.36,45.93,39.11,46.84,60.35,2.53,58.66,13.57,68.93,13.57,68.93,3.89,1.36,11.79,6.72,14.61,9.35,5.26,4.92,6.07,10.49,6.07,10.49l-8,6.04c-8.74,6.6-12.65,17.81-9.91,28.42.05.18.09.36.14.54,1.87,7.12,6.44,13.22,12.7,17.09h0c-68.87,52.38-142.45,36.54-142.45,36.54-53.26,21.37-104.37,3.65-104.37,3.65-67.94-20.26-93.04-109.72-93.04-109.72-5.91-37.14,8.02-56.13,8.02-56.13,23.21-39.25,71.83-18.57,71.83-18.57,33.76,18.15,50.22,67.1,50.22,67.1l-4.22-35.45Z"/><path class="cls-1" d="M580.68,410.35c-.27-.03-27.09-2.81-52.99-18.04-33.33-19.61-49.96-49.9-49.48-90.06h31.85c2.03,0,3.68-1.65,3.68-3.68s-1.65-3.68-3.68-3.68h-55.07c-2.03,0-3.68,1.65-3.68,3.68s1.65,3.68,3.68,3.68h15.87c-.56,53.5,28.5,81.99,53.32,96.53,27.29,15.98,54.63,18.78,55.78,18.9.12.01.24.02.36.02,1.87,0,3.47-1.42,3.66-3.32.2-2.02-1.28-3.82-3.31-4.02Z"/><ellipse class="cls-1" cx="662.25" cy="276.42" rx="12.3" ry="43.78"/><path class="cls-1" d="M565.13,350.73c-.33,0-.67-.06-1-.19-27.39-10.6-34.78-68.56-35.08-71.02-.18-1.51.89-2.89,2.4-3.08,1.51-.18,2.89.89,3.08,2.4.07.57,7.28,57.13,31.59,66.55,1.42.55,2.13,2.15,1.58,3.57-.42,1.09-1.47,1.76-2.57,1.76Z"/><path class="cls-1" d="M673.77,328.33c-.74,0-1.47-.36-1.92-1.02-.7-1.06-.42-2.49.64-3.19,20.86-13.9,39.63-15.1,51.71-13.66,13.16,1.57,21.31,6.44,21.65,6.65,1.09.66,1.43,2.07.77,3.16-.66,1.09-2.07,1.43-3.16.78-1.25-.76-30.95-18.08-68.43,6.9-.39.26-.84.39-1.27.39Z"/><path class="cls-2" d="M661.08,771.03c-16.53-1.57-23.55-26-25.5-34.47-6.26,1.25-13.71,1.89-22.2,1.89-11.02,0-20.9-1.06-25.57-1.65-3.8,25.44-28.8,29.12-29.06,29.16l-.45.06-.45-.09c-67.55-13.09-109.86-53.92-110.28-54.33l-.71-.69-.1-.99c-1.85-17.42,14.06-29.69,20.64-33.98-13.94-19.49-5.96-36.04-5.59-36.76l.49-.97,1.02-.38c49.97-18.54,53.87-72.16,53.91-72.7l.2-3.18,3.12.65c26.95,5.63,52.52,8.48,76.01,8.48,51.55,0,84.96-13.81,103.91-25.4,20.5-12.53,28.96-25.23,29.05-25.36l1.7-2.6,2.38,1.99c38.38,32.13,44.21,72,42.34,99.78-1.66,24.69-9.35,44.03-12.26,50.58,18.01,10.91,24.13,30.71,24.39,31.58l.24.79-.24.79c-7.7,25.77-32.13,45.67-70.67,57.55-28.75,8.86-54.81,10.2-55.91,10.25h-.2s-.2,0-.2,0Z"/><path class="cls-1" d="M731.82,521.83c72.58,60.77,28.27,149.39,28.27,149.39,18.99,10.13,25.32,31.23,25.32,31.23-18.15,60.77-124.07,65.83-124.07,65.83-17.72-1.69-23.63-35.03-23.63-35.03-7.49,1.83-16.19,2.43-24.33,2.43-14.96,0-28-2.01-28-2.01-2.11,26.16-27.01,29.54-27.01,29.54-67.52-13.08-108.87-53.59-108.87-53.59-2.11-19.83,21.94-32.92,21.94-32.92-15.61-19.41-7.17-36.29-7.17-36.29,52.33-19.41,55.7-75.12,55.7-75.12,28.99,6.06,54.4,8.54,76.57,8.54,101.45,0,135.27-52.01,135.27-52.01M730.58,513.6l-3.39,5.21c-.2.29-8.54,12.58-28.5,24.71-18.62,11.31-51.46,24.8-102.15,24.8-23.3,0-48.68-2.83-75.44-8.42l-6.25-1.31-.39,6.38c0,.12-.93,13.41-7.91,28.7-9.19,20.12-24.06,34.11-44.2,41.58l-2.04.76-.97,1.95c-.38.76-8.44,17.45,4.24,37.27-7.81,5.62-21.38,17.96-19.57,34.99l.21,1.97,1.42,1.39c.44.43,10.98,10.68,30.05,22.63,17.53,10.98,45.93,25.52,81.64,32.44l.89.17.9-.12c.3-.04,7.51-1.06,14.93-5.77,6.09-3.86,13.39-10.88,16.01-23.08,5.32.6,13.91,1.36,23.32,1.36,7.53,0,14.28-.49,20.15-1.47.89,3.38,2.28,7.94,4.28,12.59,7.17,16.6,16.47,20.83,23.01,21.45l.39.04.39-.02c1.11-.05,27.51-1.4,56.59-10.37,17.27-5.32,31.87-12.25,43.4-20.58,14.81-10.7,24.6-23.76,29.1-38.82l.47-1.58-.47-1.58c-.26-.88-6.23-20.19-23.57-31.85,3.44-8.23,10.02-26.57,11.56-49.33,1.22-18.04-1.02-35.11-6.63-50.74-7.03-19.57-19.37-36.85-36.69-51.35l-4.78-4h0Z"/><path class="cls-1" d="M581.35,661.61c-3.97,0-7.71-.74-10.9-2.23-6.75-3.15-9.76-9.03-8.93-17.47.73-7.45,4.44-16.16,7.6-22.91,3.75-8.04,9.66-14.29,16.64-17.59,7.09-3.36,14.73-3.47,21.5-.31,6.75,3.15,10.82,8.93,11.77,16.72.84,6.85-.8,14.93-4.74,23.37h0c-3.66,7.84-10.82,14.33-19.66,17.82-4.41,1.74-8.98,2.62-13.28,2.62ZM596.98,604.32c-2.95,0-5.96.69-8.86,2.06-5.82,2.76-10.79,8.06-14,14.94-2.97,6.36-6.46,14.5-7.1,21.12-.6,6.11,1.18,9.79,5.77,11.93,5.31,2.48,12.72,2.29,19.82-.52,7.54-2.97,13.62-8.45,16.68-15.02h0c3.5-7.5,4.97-14.54,4.26-20.36-.72-5.88-3.62-10.04-8.63-12.38-2.53-1.18-5.22-1.77-7.95-1.77Z"/><path class="cls-1" d="M708.22,640.04c-3.4,0-6.71-.72-9.79-2.16-12.54-5.86-14.93-21.89-6.08-40.84,7.59-16.27,16.48-20.2,30.68-13.57,16.23,7.58,21.53,20.48,14.56,35.42-3.77,8.07-9.84,14.51-17.1,18.12-4.06,2.02-8.23,3.03-12.27,3.03ZM711.5,585.88c-5.22,0-9.53,3.6-14.16,13.5-5.91,12.67-8.12,28.12,3.41,33.5,5.2,2.43,11.33,2.14,17.26-.82,6.15-3.06,11.32-8.57,14.56-15.51,7.14-15.29-2.53-23.71-11.9-28.08-3.43-1.6-6.43-2.6-9.18-2.6Z"/><path class="cls-1" d="M489.53,694.67c-.24,0-.48-.03-.73-.1-.41-.11-10.14-2.87-22.75-15.48-1.08-1.08-1.08-2.83,0-3.9,1.08-1.08,2.83-1.08,3.9,0,11.46,11.46,20.22,14.04,20.31,14.06,1.46.41,2.32,1.93,1.91,3.4-.34,1.22-1.44,2.02-2.65,2.02Z"/><path class="cls-1" d="M611.66,741.17c-11.36,0-21.63-1.28-30.27-2.98-25.77-5.08-42.54-14.67-43.24-15.07-1.32-.76-1.77-2.45-1.01-3.77.76-1.32,2.45-1.77,3.77-1.01.17.1,16.82,9.6,41.74,14.47,22.89,4.48,57.68,5.86,93.44-12.98,1.35-.71,3.02-.19,3.73,1.16.71,1.35.19,3.02-1.16,3.73-23.74,12.51-47.06,16.45-67.01,16.45Z"/><path class="cls-1" d="M740.13,688.13c-1.13,0-2.2-.71-2.6-1.84-.51-1.44.24-3.01,1.67-3.53,5.02-1.79,18.92-8.01,23-15.22.75-1.33,2.43-1.79,3.76-1.04,1.33.75,1.79,2.43,1.05,3.76-5.93,10.48-25.14,17.41-25.95,17.7-.31.11-.62.16-.92.16Z"/></svg>